<svg xmlns="http://www.w3.org/2000/svg" xmlns:xlink="http://www.w3.org/1999/xlink" width="1200" zoomAndPan="magnify" viewBox="0 0 900 225" height="300" preserveAspectRatio="xMidYMid meet" version="1.0"><defs><g/></defs><g fill="#a21232" fill-opacity="1"><g transform="translate(111.41418, 182.265933)"><g><path d="M 24.984375 0 L 24.984375 -126.5625 L 4.140625 -126.5625 L 4.140625 -143.8125 L 65.078125 -143.8125 L 65.078125 -126.5625 L 44.40625 -126.5625 L 44.40625 0 Z M 24.984375 0 "/></g></g></g><g fill="#a21232" fill-opacity="1"><g transform="translate(189.43275, 182.265933)"><g><path d="M 8.265625 0 L 8.265625 -143.8125 L 27.859375 -143.8125 L 27.859375 -81.4375 L 48.71875 -81.4375 L 48.71875 -143.8125 L 68.125 -143.8125 L 68.125 0 L 48.71875 0 L 48.71875 -64.171875 L 27.859375 -64.171875 L 27.859375 0 Z M 8.265625 0 "/></g></g></g><g fill="#a21232" fill-opacity="1"><g transform="translate(274.641941, 182.265933)"><g><path d="M 8.265625 0 L 8.265625 -143.8125 L 59.6875 -143.8125 L 59.6875 -126.5625 L 27.859375 -126.5625 L 27.859375 -81.4375 L 57.890625 -81.4375 L 57.890625 -64.171875 L 27.859375 -64.171875 L 27.859375 -17.25 L 59.6875 -17.25 L 59.6875 0 Z M 8.265625 0 "/></g></g></g><g fill="#a21232" fill-opacity="1"><g transform="translate(347.986619, 182.265933)"><g/></g></g><g fill="#a21232" fill-opacity="1"><g transform="translate(395.265273, 182.265933)"><g><path d="M 22.65625 0 L 4.140625 -143.8125 L 24.265625 -143.8125 L 33.609375 -67.765625 L 36.671875 -17.25 L 40.625 -17.25 L 43.6875 -67.765625 L 53.03125 -143.8125 L 73.171875 -143.8125 L 54.828125 0 Z M 22.65625 0 "/></g></g></g><g fill="#a21232" fill-opacity="1"><g transform="translate(481.373294, 182.265933)"><g><path d="M 8.265625 0 L 8.265625 -143.8125 L 59.6875 -143.8125 L 59.6875 -126.5625 L 27.859375 -126.5625 L 27.859375 -81.4375 L 57.890625 -81.4375 L 57.890625 -64.171875 L 27.859375 -64.171875 L 27.859375 -17.25 L 59.6875 -17.25 L 59.6875 0 Z M 8.265625 0 "/></g></g></g><g fill="#a21232" fill-opacity="1"><g transform="translate(554.717948, 182.265933)"><g><path d="M 8.265625 0 L 8.265625 -143.8125 L 36.671875 -143.8125 C 47.335938 -143.8125 55.097656 -141.535156 59.953125 -136.984375 C 64.804688 -132.429688 67.410156 -125 67.765625 -114.6875 C 68.003906 -108.09375 68.125 -102.28125 68.125 -97.25 C 68.125 -92.21875 68.003906 -86.765625 67.765625 -80.890625 C 67.285156 -67.472656 62.851562 -58.847656 54.46875 -55.015625 L 70.109375 0 L 49.4375 0 L 36.140625 -51.765625 L 27.859375 -51.765625 L 27.859375 0 Z M 27.859375 -69.03125 L 36.5 -69.03125 C 44.039062 -69.03125 47.992188 -72.625 48.359375 -79.8125 C 48.953125 -91.800781 48.953125 -103.726562 48.359375 -115.59375 C 47.992188 -122.90625 44.097656 -126.5625 36.671875 -126.5625 L 27.859375 -126.5625 Z M 27.859375 -69.03125 "/></g></g></g><g fill="#a21232" fill-opacity="1"><g transform="translate(637.949726, 182.265933)"><g><path d="M 22.65625 0 L 4.140625 -143.8125 L 24.265625 -143.8125 L 33.609375 -67.765625 L 36.671875 -17.25 L 40.625 -17.25 L 43.6875 -67.765625 L 53.03125 -143.8125 L 73.171875 -143.8125 L 54.828125 0 Z M 22.65625 0 "/></g></g></g><g fill="#a21232" fill-opacity="1"><g transform="translate(724.05777, 182.265933)"><g><path d="M 8.265625 0 L 8.265625 -143.8125 L 59.6875 -143.8125 L 59.6875 -126.5625 L 27.859375 -126.5625 L 27.859375 -81.4375 L 57.890625 -81.4375 L 57.890625 -64.171875 L 27.859375 -64.171875 L 27.859375 -17.25 L 59.6875 -17.25 L 59.6875 0 Z M 8.265625 0 "/></g></g></g></svg>